<?xml version="1.0" standalone="no"?><!DOCTYPE svg PUBLIC "-//W3C//DTD SVG 1.1//EN" "http://www.w3.org/Graphics/SVG/1.1/DTD/svg11.dtd"><svg class="icon" width="200px" height="200.00px" viewBox="0 0 1024 1024" version="1.1" xmlns="http://www.w3.org/2000/svg"><path fill="#333333" d="M1024 94.72V0h-94.72v64H896V0H128v64H94.72V0H0v94.72h64V128H0v768h64v33.28H0V1024h94.72v-64H128V1024h768v-64h33.28V1024H1024v-94.72h-64V896H1024V128h-64V94.72H1024z m-64-64h33.28v33.28h-33.28V30.72z m-896 962.56H30.72v-33.28h33.28v33.28zM896 94.72h33.28V128H896V94.72z m-64-64h33.28v33.28h-33.28V30.72z m-673.28 0h33.28v33.28H158.72V30.72zM94.72 94.72H128V128H94.72V94.72zM30.72 64V30.72h33.28v33.28H30.72z m0 94.72h33.28v33.28H30.72V158.72z m33.28 706.56H30.72v-33.28h33.28v33.28zM128 929.28H94.72V896H128v33.28z m64 64H158.72v-33.28h33.28v33.28z m673.28 0h-33.28v-33.28h33.28v33.28z m64-64H896V896h33.28v33.28z m64 30.72v33.28h-33.28v-33.28h33.28z m0-94.72h-33.28v-33.28h33.28v33.28z m0-64h-64v64h-64v64h-64v64H222.72v-64H158.72v-64H94.72v-64H30.72V222.72h64V158.72h64V94.72h64V30.72h581.12v64h64v64h64v64h64v578.56z m0-642.56v33.28h-33.28V158.72h33.28z"  /></svg>