<?xml version="1.0" standalone="no"?><!DOCTYPE svg PUBLIC "-//W3C//DTD SVG 1.1//EN" "http://www.w3.org/Graphics/SVG/1.1/DTD/svg11.dtd"><svg class="icon" width="200px" height="200.00px" viewBox="0 0 1024 1024" version="1.1" xmlns="http://www.w3.org/2000/svg"><path fill="#333333" d="M1003.127 855.635h12.873v73.794h-12.873v-73.794M1003.127 733.782h12.873v73.794h-12.873v-73.794M1003.127 611.929h12.873v73.804h-12.873v-73.805M1003.127 490.077h12.873v73.804h-12.873v-73.804M1003.127 368.277h12.873v73.805h-12.873v-73.805M1003.127 246.425h12.873v73.794h-12.873v-73.847M1003.127 124.572h12.873v73.794h-12.873v-73.794M1003.127 2.719h12.873v73.794h-12.873v-73.847M901.581 2.667h73.804v12.873h-73.836v-12.873M779.75 2.667h73.805v12.873h-73.805v-12.873M657.897 2.667h73.804v12.873h-73.804v-12.873M536.098 2.667h73.805v12.873h-73.804v-12.873M414.245 2.667h73.805v12.873h-73.805v-12.873M292.393 2.667h73.804v12.873h-73.804v-12.873M170.592 2.667h73.658v12.873h-73.805v-12.873M48.593 2.667h73.857v12.873h-73.805v-12.873M8 977.487v33.18h33.18v-12.873h-20.307v-20.307h-12.873M8 855.635h12.873v73.794h-12.873v-73.794M8 733.782h12.873v73.794h-12.873v-73.794M8 611.929h12.873v73.804h-12.873v-73.805M8 490.077h12.873v73.804h-12.873v-73.804M8 368.277h12.873v73.805h-12.873v-73.805M8 246.425h12.873v73.794h-12.873v-73.847M8 124.572h12.873v73.794h-12.873v-73.794M8 2.667h12.873v73.794h-12.873v-73.794M89.239 997.794h73.794v12.873h-73.794v-12.873M211.038 997.794h73.794v12.873h-73.794v-12.873M701.252 489.993h-172.578v-172.62h-33.348v172.62h-172.62v33.348h172.62v172.631h33.348v-172.631h172.631v-33.348M332.933 997.794h73.805v12.873h-73.805v-12.873M454.796 997.794h73.794v12.873h-73.794v-12.873M576.596 997.794h73.794v12.873h-73.794v-12.873M698.448 997.794h73.794v12.873h-73.794v-12.873M820.301 997.794h73.899v12.873h-73.794v-12.873M1003.18 977.487v20.307h-60.9v12.873h73.721v-33.18h-12.873M999.41 973.77z"  /></svg>